<svg id="Capa_1" data-name="Capa 1" xmlns="http://www.w3.org/2000/svg" viewBox="0 0 405.6 338.81"><defs><style>.cls-1{fill:#fff;}</style></defs><title>snapcar-logo</title><polygon class="cls-1" points="130.93 313.28 113.9 313.28 113.9 322.82 129.14 322.82 129.14 325.69 113.9 325.69 113.9 335.46 131.13 335.46 131.13 338.33 110.75 338.33 110.75 310.41 130.93 310.41 130.93 313.28"/><path class="cls-1" d="M209.13,419.55c-8.77,0-14.2-6.38-14.2-14.4,0-7.7,5.62-14.48,14-14.48a14.71,14.71,0,0,1,10.41,3.71l-2,2.39a11.87,11.87,0,0,0-8.5-3.19c-6.18,0-10.61,5.22-10.61,11.49,0,6.7,4.27,11.65,11,11.65a13.14,13.14,0,0,0,8.06-2.79V407h-8.5v-2.83h11.53v11.13a16.91,16.91,0,0,1-11.21,4.27" transform="translate(-48.31 -80.74)"/><path class="cls-1" d="M260.64,407.14c0,8.14-4.67,12.37-11.65,12.37s-11.6-4.23-11.6-12.13V391.15h3.15v16c0,6,3.19,9.41,8.54,9.41,5.15,0,8.42-3.11,8.42-9.21V391.15h3.15Z" transform="translate(-48.31 -80.74)"/><path class="cls-1" d="M290.25,394.06h-8.62v11.33h8.58c4.19,0,7.18-2.15,7.18-5.78,0-3.47-2.63-5.54-7.14-5.54m7.46,25-8.1-10.85h-8v10.85h-3.15V391.15h12c6.14,0,10.09,3.31,10.09,8.34,0,4.67-3.19,7.38-7.58,8.18l8.58,11.41Z" transform="translate(-48.31 -80.74)"/><path class="cls-1" d="M330.67,393.58c-6.38,0-10.93,5.11-10.93,11.49s4.63,11.57,11,11.57,10.93-5.11,10.93-11.49-4.63-11.57-11-11.57m0,26c-8.5,0-14.2-6.66-14.2-14.4a14.16,14.16,0,0,1,14.28-14.48c8.5,0,14.2,6.66,14.2,14.4a14.16,14.16,0,0,1-14.28,14.48" transform="translate(-48.31 -80.74)"/><path class="cls-1" d="M371.81,403.59c6.22,1.35,9.09,3.63,9.09,7.94,0,4.83-4,7.94-9.53,7.94A16.34,16.34,0,0,1,360,415l2-2.31a13.3,13.3,0,0,0,9.57,3.95c3.75,0,6.22-2,6.22-4.79,0-2.63-1.4-4.11-7.26-5.34-6.42-1.4-9.37-3.47-9.37-8.1,0-4.47,3.87-7.66,9.17-7.66a14.57,14.57,0,0,1,9.81,3.43l-1.83,2.43a12.26,12.26,0,0,0-8.06-3c-3.63,0-5.94,2-5.94,4.55s1.44,4.15,7.58,5.47" transform="translate(-48.31 -80.74)"/><path class="cls-1" d="M55.59,301.79c-.32,15.66,11,20.46,24.83,20.46,8,0,20.14-4.37,20.14-15.45,0-8.63-8.63-12-15.66-13.74L68,288.89c-9-2.24-17.16-6.5-17.16-18.33,0-7.46,4.8-21.42,26.21-21.42,15,0,28.24,8.1,28.13,23.65H97.89c-.43-11.61-10-17.47-20.78-17.47-9.91,0-19.07,3.84-19.07,15.13,0,7.14,5.33,10.12,11.51,11.61l18.54,4.58c10.76,2.88,19.71,7.56,19.71,20,0,5.22-2.13,21.74-29.09,21.74-18,0-31.22-8.1-30.37-26.64Z" transform="translate(-48.31 -80.74)"/><path class="cls-1" d="M115.8,271.85h6.71v9.48h.21c2.45-6.61,9.8-11.08,17.58-11.08,15.45,0,20.14,8.1,20.14,21.21v35.38h-6.71V292.52c0-9.48-3.09-16.62-14-16.62-10.65,0-17,8.1-17.26,18.86v32.07H115.8Z" transform="translate(-48.31 -80.74)"/><path class="cls-1" d="M206.16,296.78h-.21c-.85,1.6-3.84,2.13-5.65,2.45-11.4,2-25.57,1.92-25.57,12.68,0,6.71,6,10.87,12.26,10.87,10.23,0,19.29-6.5,19.18-17.26Zm-35.8-8.1c.64-12.89,9.7-18.43,22.27-18.43,9.7,0,20.25,3,20.25,17.69v29.2c0,2.56,1.28,4,3.94,4a6.28,6.28,0,0,0,2.13-.43v5.65a18.41,18.41,0,0,1-4.37.43c-6.82,0-7.88-3.84-7.88-9.59h-.21c-4.69,7.14-9.48,11.19-20,11.19-10.12,0-18.43-5-18.43-16.09,0-15.45,15-16,29.52-17.69,5.54-.64,8.63-1.39,8.63-7.46,0-9.06-6.5-11.29-14.38-11.29-8.31,0-14.49,3.83-14.7,12.79Z" transform="translate(-48.31 -80.74)"/><path class="cls-1" d="M250.16,275.9c-14.81,0-19.29,11-19.29,23.44,0,11.4,5,23.44,19.29,23.44,12.79,0,18-12,18-23.44s-5.22-23.44-18-23.44m-26-4.05h6.18v10.44h.21c3.09-7.46,10.76-12,19.6-12,16.73,0,24.72,13.53,24.72,29.09s-8,29.09-24.72,29.09c-8.2,0-16.2-4.16-19.07-12h-.21v30.8h-6.71Z" transform="translate(-48.31 -80.74)"/><path class="cls-1" d="M334.88,276.32c-1.07-7.57-8.31-13.32-16.62-13.32-15,0-20.67,12.79-20.67,26.11,0,12.68,5.65,25.47,20.67,25.47,10.23,0,16-7,17.26-17h16.2c-1.71,19-14.81,31.11-33.46,31.11-23.55,0-37.4-17.58-37.4-39.53,0-22.59,13.85-40.17,37.4-40.17,16.73,0,30.8,9.8,32.82,27.39Z" transform="translate(-48.31 -80.74)"/><path class="cls-1" d="M393.7,299.87c-2.56,2.24-7.89,2.34-12.57,3.2s-9,2.56-9,8.1,4.37,7,9.27,7c11.83,0,12.25-9.38,12.25-12.68Zm-34.95-11.19c.85-14.17,13.53-18.43,25.89-18.43,11,0,24.19,2.45,24.19,15.66v28.66c0,5,.53,10,1.92,12.25H395.41a22.41,22.41,0,0,1-1.07-5.33c-4.8,5-11.83,6.82-18.54,6.82-10.44,0-18.75-5.22-18.75-16.52,0-12.47,9.38-15.45,18.75-16.73s17.9-1.06,17.9-7.24c0-6.5-4.48-7.46-9.8-7.46-5.76,0-9.48,2.34-10,8.31Z" transform="translate(-48.31 -80.74)"/><path class="cls-1" d="M418.42,271.74h14.39V282H433a19.48,19.48,0,0,1,17.58-11.72,11.28,11.28,0,0,1,3.3.53v14.07a27.61,27.61,0,0,0-5.43-.53c-11.08,0-14.92,8-14.92,17.69v24.83H418.42Z" transform="translate(-48.31 -80.74)"/><path class="cls-1" d="M219.68,179.22a44.45,44.45,0,0,1,62.86,0l11.16-11.16a60.22,60.22,0,0,0-70-11h0l-12.63-12.64a77.45,77.45,0,0,1,94.8,11.52l12.72-12.72A95.43,95.43,0,0,0,198,131.36L186.63,120a111.28,111.28,0,0,1,143.15,12L343,118.79a129.91,129.91,0,0,0-183.72,0Z" transform="translate(-48.31 -80.74)"/><path class="cls-1" d="M133.16,403.59c6.22,1.35,9.09,3.63,9.09,7.94,0,4.83-4,7.94-9.53,7.94A16.34,16.34,0,0,1,121.31,415l2-2.31c2.91,2.63,5.7,3.95,9.57,3.95s6.22-2,6.22-4.79c0-2.63-1.4-4.11-7.26-5.34-6.42-1.4-9.37-3.47-9.37-8.1,0-4.47,3.87-7.66,9.17-7.66a14.58,14.58,0,0,1,9.81,3.43l-1.84,2.43a12.26,12.26,0,0,0-8.06-3c-3.63,0-5.94,2-5.94,4.55s1.44,4.15,7.58,5.47" transform="translate(-48.31 -80.74)"/></svg>