<svg id="Capa_1" data-name="Capa 1" xmlns="http://www.w3.org/2000/svg" viewBox="0 0 449.89 122.65"><defs><style>.cls-1{fill:#fff;}</style></defs><title>snapcar-logo-arti</title><path class="cls-1" d="M188.66,240c-.23,11.26,7.89,14.7,17.84,14.7,5.74,0,14.47-3.14,14.47-11.1,0-6.2-6.2-8.65-11.26-9.88l-12.18-3c-6.43-1.61-12.33-4.67-12.33-13.17,0-5.36,3.45-15.39,18.84-15.39,10.8,0,20.29,5.82,20.22,17h-5.21c-.31-8.35-7.2-12.56-14.94-12.56-7.12,0-13.71,2.76-13.71,10.88,0,5.13,3.83,7.28,8.27,8.35L212,229.09c7.73,2.07,14.17,5.44,14.17,14.4,0,3.75-1.53,15.62-20.91,15.62-12.94,0-22.44-5.82-21.83-19.15Z" transform="translate(-25.06 -188.67)"/><path class="cls-1" d="M231.93,218.44h4.82v6.82h.15c1.76-4.75,7-8,12.64-8,11.1,0,14.47,5.82,14.47,15.24V258H259.2V233.3c0-6.82-2.22-11.95-10-11.95-7.66,0-12.25,5.82-12.41,13.56V258h-4.82Z" transform="translate(-25.06 -188.67)"/><path class="cls-1" d="M271.14,230.54c.46-9.27,7-13.25,16-13.25,7,0,14.55,2.14,14.55,12.71v21a2.57,2.57,0,0,0,2.83,2.91,4.52,4.52,0,0,0,1.53-.31v4.06a13.24,13.24,0,0,1-3.14.31c-4.9,0-5.67-2.76-5.67-6.89h-.15c-3.37,5.13-6.82,8-14.4,8-7.28,0-13.25-3.6-13.25-11.56,0-11.1,10.8-11.49,21.21-12.71,4-.46,6.2-1,6.2-5.36,0-6.51-4.67-8.12-10.34-8.12-6,0-10.42,2.76-10.57,9.19Zm25.73,5.82h-.15c-.61,1.15-2.76,1.53-4.06,1.76-8.19,1.46-18.38,1.38-18.38,9.11,0,4.83,4.29,7.81,8.81,7.81,7.35,0,13.86-4.67,13.78-12.41Z" transform="translate(-25.06 -188.67)"/><path class="cls-1" d="M309.82,218.44h4.44v7.51h.15c2.22-5.36,7.73-8.65,14.09-8.65,12,0,17.77,9.73,17.77,20.91s-5.74,20.91-17.77,20.91c-5.9,0-11.64-3-13.71-8.65h-.15v22.13h-4.83Zm18.69,2.91c-10.65,0-13.86,7.89-13.86,16.85,0,8.19,3.6,16.85,13.86,16.85,9.19,0,12.94-8.65,12.94-16.85s-3.75-16.85-12.94-16.85" transform="translate(-25.06 -188.67)"/><path class="cls-1" d="M389.39,221.66c-.77-5.44-6-9.57-11.95-9.57-10.8,0-14.86,9.19-14.86,18.76,0,9.11,4.06,18.3,14.86,18.3,7.35,0,11.49-5.05,12.41-12.25h11.64c-1.22,13.63-10.65,22.36-24,22.36-16.92,0-26.88-12.64-26.88-28.41,0-16.24,10-28.87,26.88-28.87,12,0,22.13,7,23.59,19.68Z" transform="translate(-25.06 -188.67)"/><path class="cls-1" d="M406.55,230.54c.61-10.19,9.73-13.25,18.61-13.25,7.89,0,17.39,1.76,17.39,11.26v20.6c0,3.6.38,7.2,1.38,8.81h-11a16.23,16.23,0,0,1-.77-3.83c-3.45,3.6-8.5,4.9-13.33,4.9-7.51,0-13.48-3.75-13.48-11.87,0-9,6.74-11.1,13.48-12s12.87-.77,12.87-5.21c0-4.67-3.22-5.36-7-5.36-4.14,0-6.82,1.69-7.2,6Zm25.12,8c-1.84,1.61-5.67,1.68-9,2.3s-6.43,1.84-6.43,5.82,3.14,5.06,6.66,5.06c8.5,0,8.81-6.74,8.81-9.11Z" transform="translate(-25.06 -188.67)"/><path class="cls-1" d="M449.44,218.37h10.34v7.35h.15a14,14,0,0,1,12.64-8.43,8.08,8.08,0,0,1,2.38.38v10.11a20,20,0,0,0-3.91-.38c-8,0-10.72,5.74-10.72,12.71V258H449.44Z" transform="translate(-25.06 -188.67)"/><path class="cls-1" d="M68.49,259.46a31.95,31.95,0,0,1,45.18,0l8-8a43.28,43.28,0,0,0-50.32-7.93h0l-9.08-9.08a55.66,55.66,0,0,1,68.13,8.28l9.14-9.14a68.59,68.59,0,0,0-86.64-8.5l-8.19-8.19a80,80,0,0,1,102.89,8.63L157.1,216a93.37,93.37,0,0,0-132,0Z" transform="translate(-25.06 -188.67)"/><path class="cls-1" d="M190.77,299.86c4.47,1,6.54,2.61,6.54,5.7,0,3.47-2.87,5.71-6.85,5.71a11.75,11.75,0,0,1-8.2-3.21l1.41-1.66a9.56,9.56,0,0,0,6.88,2.84c2.69,0,4.47-1.4,4.47-3.44s-1-3-5.22-3.84c-4.62-1-6.74-2.5-6.74-5.82s2.78-5.51,6.59-5.51a10.48,10.48,0,0,1,7.05,2.47l-1.32,1.75a8.82,8.82,0,0,0-5.79-2.18c-2.61,0-4.27,1.43-4.27,3.27s1,3,5.45,3.93" transform="translate(-25.06 -188.67)"/><polygon class="cls-1" points="198.83 104.3 186.59 104.3 186.59 111.16 197.54 111.16 197.54 113.22 186.59 113.22 186.59 120.24 198.97 120.24 198.97 122.31 184.32 122.31 184.32 102.24 198.83 102.24 198.83 104.3"/><path class="cls-1" d="M245.37,311.33c-6.31,0-10.21-4.59-10.21-10.35,0-5.53,4-10.41,10.06-10.41a10.58,10.58,0,0,1,7.48,2.67L251.25,295a8.54,8.54,0,0,0-6.11-2.29c-4.44,0-7.63,3.75-7.63,8.26,0,4.82,3.07,8.37,7.94,8.37a9.46,9.46,0,0,0,5.79-2v-5h-6.11v-2h8.29v8a12.16,12.16,0,0,1-8.06,3.07" transform="translate(-25.06 -188.67)"/><path class="cls-1" d="M282.39,302.41c0,5.85-3.35,8.89-8.37,8.89s-8.34-3-8.34-8.72V290.91h2.27v11.52c0,4.33,2.29,6.77,6.13,6.77s6-2.24,6-6.62V290.91h2.26Z" transform="translate(-25.06 -188.67)"/><path class="cls-1" d="M309,311l-5.82-7.8h-5.73V311h-2.27V290.91h8.63c4.42,0,7.25,2.38,7.25,6,0,3.35-2.29,5.3-5.45,5.88l6.16,8.2Zm-5.36-18h-6.19v8.14h6.16c3,0,5.16-1.55,5.16-4.16s-1.89-4-5.13-4" transform="translate(-25.06 -188.67)"/><path class="cls-1" d="M332.73,311.33A10.38,10.38,0,1,1,343,300.92a10.08,10.08,0,0,1-10.26,10.41m0-18.66c-4.59,0-7.86,3.67-7.86,8.26a8,8,0,0,0,7.91,8.31c4.59,0,7.85-3.67,7.85-8.26a8,8,0,0,0-7.91-8.31" transform="translate(-25.06 -188.67)"/><path class="cls-1" d="M362.3,299.86c4.47,1,6.54,2.61,6.54,5.7,0,3.47-2.87,5.71-6.85,5.71a11.74,11.74,0,0,1-8.2-3.21l1.41-1.66a9.56,9.56,0,0,0,6.88,2.84c2.69,0,4.47-1.4,4.47-3.44s-1-3-5.22-3.84c-4.61-1-6.74-2.5-6.74-5.82s2.78-5.51,6.59-5.51a10.47,10.47,0,0,1,7.05,2.47l-1.32,1.75a8.82,8.82,0,0,0-5.79-2.18c-2.61,0-4.27,1.43-4.27,3.27s1,3,5.45,3.93" transform="translate(-25.06 -188.67)"/></svg>